<svg width="900" height="1100" viewBox="0 0 900 1100" fill="none" xmlns="http://www.w3.org/2000/svg">
  <rect width="900" height="1100" fill="#FBF7ED"/>
  <circle cx="450" cy="530" r="320" fill="#DDE8C2"/>
  <path d="M392 209h116l23 91v505c0 68-49 113-81 113s-81-45-81-113V300l23-91Z" fill="#172214"/>
  <path d="M411 198h78v88h-78z" fill="#30401F"/>
  <rect x="359" y="474" width="182" height="220" rx="8" fill="#FFFDF5"/>
  <text x="450" y="551" text-anchor="middle" fill="#172214" font-family="Georgia,serif" font-size="38">BASIL</text>
  <text x="450" y="594" text-anchor="middle" fill="#68753C" font-family="Georgia,serif" font-size="24">INFUSED OIL</text>
  <path d="M632 688c-74 12-118 54-131 126 76-8 121-50 131-126Z" fill="#30401F"/>
  <path d="M675 762c-71-24-130-10-177 44 70 30 130 15 177-44Z" fill="#68753C"/>
  <path d="M203 789c96-48 184-54 265-18-82 57-170 63-265 18Z" fill="#68753C" opacity=".7"/>
</svg>
