<svg width="900" height="1100" viewBox="0 0 900 1100" fill="none" xmlns="http://www.w3.org/2000/svg">
  <rect width="900" height="1100" fill="#F7F0DF"/>
  <circle cx="450" cy="530" r="320" fill="#D7C6AA"/>
  <path d="M392 209h116l23 91v505c0 68-49 113-81 113s-81-45-81-113V300l23-91Z" fill="#172214"/>
  <path d="M411 198h78v88h-78z" fill="#30401F"/>
  <rect x="359" y="474" width="182" height="220" rx="8" fill="#FBF7ED"/>
  <text x="450" y="551" text-anchor="middle" fill="#172214" font-family="Georgia,serif" font-size="38">GARLIC</text>
  <text x="450" y="594" text-anchor="middle" fill="#98752F" font-family="Georgia,serif" font-size="24">INFUSED OIL</text>
  <path d="M614 720c57-56 130-22 134 49 3 63-54 100-103 78-51 34-125-7-111-76 8-42 43-61 80-51Z" fill="#FFF9E8"/>
  <path d="M642 708c-5-32 12-63 46-84" stroke="#68753C" stroke-width="12" stroke-linecap="round"/>
  <path d="M185 795c95-48 183-55 264-19-81 58-169 64-264 19Z" fill="#68753C"/>
</svg>
